# xmcd
#
# Track frame offsets:
#	150
#	20289
#	33085
#	48004
#	59560
#	73188
#	87030
#	99618
#	113893
#	127470
#	140331
#	154767
#	169423
#	186597
#	198264
#
# Disc length: 2880 seconds
#
# Revision: 0
# Processed by: cddbd v1.5.2PL0 Copyright (c) Steve Scherf et al.
# Submitted via: audiograbber 1.83.01
#
DISCID=d60b3e0f
DTITLE=Various Artist - The Soul Story: Hard To Find Hits - Disc 2
DYEAR=2006
DGENRE=Soul
TTITLE0=The Isley Brothers - Shout (Parts 1 and 2)
TTITLE1=Jackie Wilson - Doggin' Around
TTITLE2=Chuck Jackson - Any Day Now (My Wild Beautiful Bird)
TTITLE3=Erma Franklin - Piece Of My Heart
TTITLE4=James and Bobby Purify - I'm Your Puppet
TTITLE5=Barbara Mason - Yes, I'm Ready
TTITLE6=Major Lance - The Monkey Time
TTITLE7=Joe Tex - Hold What You've Got
TTITLE8=Joe Henderson - Snap Your Fingers
TTITLE9=Brenda and the Tabulations - Dry Your Eyes
TTITLE10=Freddie Scott - Are You Lonely For Me Baby
TTITLE11=Theola Kilgore - The Love Of My Man
TTITLE12=Little Johnny Taylor - Part Time Love
TTITLE13=Maxine Brown - All In My Mind
TTITLE14=O. C. Smith - Little Green Apples
EXTD=
EXTT0=
EXTT1=
EXTT2=
EXTT3=
EXTT4=
EXTT5=
EXTT6=
EXTT7=
EXTT8=
EXTT9=
EXTT10=
EXTT11=
EXTT12=
EXTT13=
EXTT14=
PLAYORDER=
